# xmcd CD database file
#
# Track frame offsets:
#	150
#	25732
#	86021
#	113744
#	142902
#	177892
#	210013
#	252095
#
# Disc length: 3914 seconds
#
# Revision: 0
# Processed by: cddbd v1.5.1PL0 Copyright (c) Steve Scherf et al.
# Submitted via: CDex 1.51
#
DISCID=580f4808
DTITLE=Allen Mezquida - A good thing
DYEAR=1992
DGENRE=Jazz
TTITLE0=Rip van Winkle
TTITLE1=Revelation
TTITLE2=The way you look tonight
TTITLE3=Tears
TTITLE4=Father Flanagan
TTITLE5=Waltzin' Gold
TTITLE6=A god thing
TTITLE7=Ballad for the Carpenter
EXTD=YEAR: 1992
EXTT0=
EXTT1=
EXTT2=
EXTT3=
EXTT4=
EXTT5=
EXTT6=
EXTT7=
PLAYORDER=
